<svg xmlns="http://www.w3.org/2000/svg" width="100mm" height="100mm" viewBox="0 0 100 100">
    <path d="M 111.16211 0 L 111.16211 113.38672 L 66.697266 113.38672 L 66.697266 207.87305 L 122.2793 207.87305 L 200.0918 283.46484 L 244.55859 283.46484 L 322.37109 207.87305 L 377.95312 207.87305 L 377.95312 113.38672 L 333.48828 113.38672 L 333.48828 0 L 111.16211 0 z M 222.32617 30.240234 C 265.87943 30.659964 307.08594 64.808242 307.08594 115.38672 C 307.08594 154.64218 281.00915 188.13726 242.67578 198.11914 C 231.29933 201.08153 212.01465 201.04018 200.83008 198.0293 C 196.1917 196.78058 189.33333 194.19638 185.58984 192.28711 C 179.69964 189.28291 179.21357 188.66321 181.97461 187.67773 C 183.72936 187.05139 206.69846 180.1065 233.01758 172.24414 C 276.78239 159.17023 280.61831 157.74245 277.91602 155.53906 C 276.29091 154.214 264.73013 146.62617 252.22461 138.67578 C 239.71909 130.72539 229.46537 123.85769 229.43945 123.41602 C 229.41337 122.9743 244.25943 113.57926 262.42969 102.53711 L 295.4668 82.460938 L 284.49609 72.34375 C 278.46265 66.780134 270.2473 59.435569 266.24023 56.021484 L 258.95508 49.814453 L 206.29297 88.001953 C 177.32918 109.00562 152.90892 126.91356 152.02539 127.79688 C 150.95452 128.86746 159.56778 132.76871 177.86133 139.49805 C 192.95477 145.05021 205.11174 149.73297 204.875 149.9043 C 204.63825 150.07551 194.85215 155.82785 183.12891 162.6875 C 158.7884 176.93016 160.52161 177.00838 150.29102 161.22852 C 127.9664 126.7946 134.35834 79.830563 165.13086 52.197266 C 182.248 36.82634 202.52924 30.049448 222.32617 30.240234 z M 200.0918 302.36133 L 200.0918 321.25977 A 22.232515 18.897638 0 0 1 177.85938 340.1582 L 0 340.1582 L 0 377.95312 L 177.85938 377.95312 A 66.697546 56.692913 0 0 0 244.55859 321.25977 L 244.55859 302.36133 L 200.0918 302.36133 z " transform="scale(0.26458333)" />
  <g transform="translate(0,-197)">
    <path style="opacity:1;fill:#4cafa5;fill-opacity:1;stroke-width:0.5999999" d="m 53.136282,249.39536 c -1.227238,-0.33039 -3.041721,-1.014 -4.032184,-1.51916 -1.558449,-0.79486 -1.687222,-0.95903 -0.956698,-1.21977 0.464279,-0.16572 6.541636,-2.00331 13.505237,-4.08356 11.579441,-3.45914 12.594299,-3.8367 11.879317,-4.41968 -0.429975,-0.35059 -3.488936,-2.35851 -6.797689,-4.46205 -3.308751,-2.10354 -6.021522,-3.92023 -6.028378,-4.03709 -0.0069,-0.11687 3.920974,-2.60287 8.72852,-5.52444 l 8.740984,-5.31196 -2.90245,-2.67645 c -1.596348,-1.47204 -3.769889,-3.41552 -4.830093,-4.31883 l -1.927642,-1.64239 -13.933337,10.10406 c -7.663336,5.55722 -14.124605,10.29525 -14.358373,10.52896 -0.283335,0.28326 1.995656,1.31538 6.835825,3.09585 3.993473,1.46901 7.209611,2.708 7.146973,2.75333 -0.06264,0.0453 -2.651702,1.56738 -5.753478,3.38233 -6.440091,3.76837 -5.981478,3.78876 -8.688324,-0.38633 -5.906721,-9.11064 -4.215497,-21.53612 3.9264,-28.84743 C 58.183408,197.7967 81.25,208.06421 81.25,227.52926 c 0,10.38634 -6.899874,19.24887 -17.042245,21.88991 -3.01002,0.7838 -8.112222,0.77283 -11.071473,-0.0238 z" />
  </g>
</svg>
