<?xml version="1.0" encoding="UTF-8" standalone="no"?>
<!-- Created with Inkscape (http://www.inkscape.org/) -->

<svg
   xmlns:dc="http://purl.org/dc/elements/1.1/"
   xmlns:cc="http://creativecommons.org/ns#"
   xmlns:rdf="http://www.w3.org/1999/02/22-rdf-syntax-ns#"
   xmlns:svg="http://www.w3.org/2000/svg"
   xmlns="http://www.w3.org/2000/svg"
   xmlns:sodipodi="http://sodipodi.sourceforge.net/DTD/sodipodi-0.dtd"
   xmlns:inkscape="http://www.inkscape.org/namespaces/inkscape"
   width="100mm"
   height="100mm"
   viewBox="0 0 100 100"
   version="1.1"
   id="svg8"
   inkscape:version="0.92.5 (2060ec1f9f, 2020-04-08)"
   sodipodi:docname="logo-all3dp.svg">
  <defs
     id="defs2" />
  <sodipodi:namedview
     id="base"
     pagecolor="#ffffff"
     bordercolor="#666666"
     borderopacity="1.0"
     inkscape:pageopacity="0.0"
     inkscape:pageshadow="2"
     inkscape:zoom="1.979899"
     inkscape:cx="155.05849"
     inkscape:cy="175.46473"
     inkscape:document-units="mm"
     inkscape:current-layer="layer1"
     showgrid="false"
     inkscape:pagecheckerboard="true"
     inkscape:window-width="1920"
     inkscape:window-height="1120"
     inkscape:window-x="1920"
     inkscape:window-y="48"
     inkscape:window-maximized="1" />
  <metadata
     id="metadata5">
    <rdf:RDF>
      <cc:Work
         rdf:about="">
        <dc:format>image/svg+xml</dc:format>
        <dc:type
           rdf:resource="http://purl.org/dc/dcmitype/StillImage" />
        <dc:title></dc:title>
      </cc:Work>
    </rdf:RDF>
  </metadata>
  <g
     inkscape:label="Layer 1"
     inkscape:groupmode="layer"
     id="layer1"
     transform="translate(0,-197)">
    <rect
       style="opacity:1;fill:#ffffff;fill-opacity:1;fill-rule:nonzero;stroke:none;stroke-width:0.13546665;stroke-miterlimit:4;stroke-dasharray:none;stroke-opacity:1"
       id="rect941"
       width="80"
       height="80"
       x="10"
       y="207" />
    <path
       style="fill:#0077e2;stroke-width:0.52083331;fill-opacity:1"
       d="m 0,247 v -50 h 50 50 v 50 50 H 50 0 Z m 32.72531,34.09222 c 3.1647,-0.93982 5.98534,-3.2357 7.41278,-6.03372 2.39706,-4.69862 2.67909,-18.68055 0.47992,-23.79265 -0.61993,-1.44107 -1.94717,-3.36632 -2.94942,-4.27835 l -1.82227,-1.65825 1.31975,-1.37817 c 0.72586,-0.75799 1.85616,-2.55004 2.51176,-3.98234 1.04742,-2.28829 1.19203,-3.42545 1.19213,-9.375 1.4e-4,-8.09262 -0.873,-11.30512 -3.89367,-14.32579 -3.22093,-3.22092 -6.73864,-4.22831 -15.89033,-4.55057 -9.21858,-0.32462 -9.24699,-0.31081 -9.00388,4.37929 l 0.15752,3.03874 7.90657,0.26042 c 6.97123,0.2296 8.0803,0.38952 9.375,1.35183 2.23694,1.66261 2.88095,4.29049 2.66822,10.88775 -0.28585,8.86534 -1.64213,10.16673 -11.09563,10.64666 l -5.72916,0.29084 v 3.38542 3.38541 l 6.5356,0.26043 c 7.06139,0.28136 8.45797,0.75815 10.25402,3.50071 0.77514,1.18362 0.91871,2.63083 0.91871,9.26081 0,11.62468 -0.18262,11.80319 -12.5,12.21815 l -8.33333,0.28075 -0.15979,2.8025 c -0.0879,1.54137 -0.0366,3.1234 0.11386,3.51561 0.41361,1.07785 16.84127,1.00545 20.53165,-0.0906 z m 45.9562,-0.0277 c 5.37121,-1.57857 7.73399,-4.44022 8.82126,-10.68378 0.3847,-2.20912 0.52629,-10.80977 0.41926,-25.4675 l -0.16162,-22.13195 -1.38694,-2.95866 c -1.60389,-3.42148 -4.3736,-5.71231 -8.46392,-7.00049 -3.56547,-1.1229 -25.92477,-1.71678 -27.12526,-0.72046 C 50.10035,212.66932 50,217.13158 50,246.97702 c 0,18.82342 0.15624,34.38067 0.34722,34.57163 0.19096,0.19095 6.00781,0.34723 12.9263,0.34723 9.98992,0 13.16136,-0.17107 15.40799,-0.8314 z m -19.1763,-7.04593 c -0.5037,-0.51401 -0.64923,-6.62275 -0.64307,-26.9925 0.004,-14.48047 0.20799,-26.64372 0.45245,-27.02947 0.34801,-0.54911 2.07004,-0.66191 7.93473,-0.51966 12.49017,0.30291 11.9272,-1.00715 11.88795,27.66384 -0.0317,23.16598 -0.1382,24.18017 -2.74203,26.11256 -1.29788,0.96319 -2.33118,1.11023 -8.85417,1.26004 -5.48626,0.12598 -7.55219,-10e-4 -8.03586,-0.49481 z"
       id="path939"
       inkscape:connector-curvature="0" />
  </g>
</svg>
