<svg xmlns="http://www.w3.org/2000/svg" viewBox="0 0 100 100">
  <g transform="translate(0,-197)">
    <path d="m 41.078068,294.61603 c -4.829845,-0.9253 -8.246607,-2.05158 -12.223049,-4.02913 -3.422235,-1.70192 -4.01487,-2.12199 -4.01487,-2.84583 0,-0.99274 -1.847613,-0.37146 22.304833,-7.50017 9.028998,-2.66495 20.029748,-5.91176 24.446103,-7.21517 4.416356,-1.3034 8.155306,-2.41021 8.308791,-2.45959 0.259517,-0.0834 -3.864499,-2.87289 -20.349925,-13.76427 -5.585242,-3.68998 -6.510026,-4.42948 -6.513013,-5.2081 -0.0033,-0.81112 1.887613,-2.08351 17.805827,-11.98273 l 17.809306,-11.07525 -8.976595,-8.20073 -8.976586,-8.20073 -1.78439,1.28077 c -0.981408,0.70443 -11.420075,8.26013 -23.197026,16.79047 -11.776953,8.53033 -24.095735,17.44116 -27.375073,19.80183 -3.279337,2.36065 -5.969301,4.38981 -5.977696,4.50921 -0.0084,0.11935 6.448678,2.56468 14.349049,5.43397 13.582878,4.93308 14.370331,5.26726 14.474921,6.1426 0.08004,0.66984 -0.117267,1.04562 -0.713756,1.35944 -0.453397,0.23855 -5.89552,3.40542 -12.093603,7.03747 -6.558599,3.84332 -11.64753,6.60375 -12.174214,6.60375 -1.670153,0 -6.119827,-5.59646 -9.048255,-11.38021 C 3.6773235,262.8375 2,255.42333 2,246.91031 c 0,-13.64575 4.3371485,-24.46044 13.561338,-33.81522 9.213444,-9.34389 20.854877,-14.08394 34.617102,-14.09505 13.309845,-0.0109 25.005772,4.76649 34.094658,13.92613 C 93.299268,222.0226 98,233.66593 98,246.92658 c 0,13.3856 -4.856031,25.4436 -13.904809,34.52693 -6.281482,6.30546 -13.042301,10.1433 -21.961358,12.4666 -3.171836,0.82621 -4.402341,0.94323 -11.0632,1.05206 -5.216693,0.0852 -8.253665,-0.0229 -9.992565,-0.35614 z" />
  </g>
</svg>
