<svg xmlns="http://www.w3.org/2000/svg" viewBox="0 0 65 65"><path d="m 19.169906,61.585387 c -1.76616,-4.60254 0.941938,-7.2735 7.374645,-7.2735 3.223887,0 7.320877,-0.55997 9.104421,-1.24438 5.725405,-2.19704 3.46695,-4.90589 -4.09021,-4.90589 -5.37146,0 -8.936013,-1.60299 -13.325595,-5.99258 -5.691791,-5.69179 -5.992574,-6.87513 -5.992574,-23.57605 0,-17.3889768 0.05669,-17.5834771 5.125228,-17.5834771 5.00993,0 5.12523,0.3448403 5.12523,15.3284271 0,13.97542 0.440259,15.6169 4.987753,18.59653 3.879902,2.54221 5.928999,2.76436 9.225411,1.00017 3.63201,-1.94379 4.242142,-4.23536 4.269052,-16.03391 0.0351,-15.3907298 1.72752,-19.64071713 7.38958,-18.5566568 3.413391,0.65353 3.92735,3.081557 4.49079,21.2151468 0.77603,24.97517 -1.6821,34.69817 -9.83858,38.91605 -7.780897,4.02366 -22.317623,4.09079 -23.845151,0.11012 z" /></svg>
